<svg width="125" height="33" viewBox="0 0 125 33" fill="none" xmlns="http://www.w3.org/2000/svg">
<path d="M28.56 21.04C28.32 22.72 27.8 24.27 27 25.69C26.22 27.09 25.2 28.3 23.94 29.32C22.7 30.34 21.27 31.13 19.65 31.69C18.03 32.27 16.28 32.56 14.4 32.56C12.26 32.56 10.31 32.19 8.55 31.45C6.79 30.73 5.27 29.73 3.99 28.45C2.73 27.17 1.75 25.66 1.05 23.92C0.35 22.16 0 20.27 0 18.25C0 16.23 0.35 14.35 1.05 12.61C1.75 10.87 2.73 9.36 3.99 8.08C5.27 6.8 6.79 5.8 8.55 5.08C10.31 4.34 12.26 3.97 14.4 3.97C16.32 3.97 18.1 4.27 19.74 4.87C21.4 5.47 22.85 6.3 24.09 7.36C25.35 8.42 26.37 9.68 27.15 11.14C27.93 12.58 28.42 14.16 28.62 15.88H20.97C20.85 15.04 20.61 14.26 20.25 13.54C19.89 12.82 19.42 12.2 18.84 11.68C18.28 11.16 17.62 10.76 16.86 10.48C16.12 10.18 15.3 10.03 14.4 10.03C13.3 10.03 12.3 10.25 11.4 10.69C10.5 11.11 9.73 11.69 9.09 12.43C8.45 13.17 7.95 14.04 7.59 15.04C7.25 16.04 7.08 17.11 7.08 18.25C7.08 19.41 7.25 20.49 7.59 21.49C7.95 22.49 8.45 23.36 9.09 24.1C9.73 24.84 10.5 25.43 11.4 25.87C12.3 26.29 13.3 26.5 14.4 26.5C15.26 26.5 16.05 26.37 16.77 26.11C17.51 25.83 18.16 25.45 18.72 24.97C19.28 24.49 19.74 23.92 20.1 23.26C20.48 22.58 20.75 21.84 20.91 21.04H28.56Z" fill="black"/>
<path d="M38.4047 14.05C39.1047 13.35 39.9347 12.81 40.8947 12.43C41.8547 12.03 42.9747 11.83 44.2547 11.83C45.5947 11.83 46.7847 12.1 47.8247 12.64C48.8647 13.18 49.7347 13.92 50.4347 14.86C51.1347 15.8 51.6647 16.9 52.0247 18.16C52.4047 19.42 52.5947 20.77 52.5947 22.21V31.93H45.6947V22.21C45.6947 21.59 45.6547 20.99 45.5747 20.41C45.5147 19.83 45.3747 19.32 45.1547 18.88C44.9347 18.42 44.6147 18.06 44.1947 17.8C43.7747 17.52 43.2047 17.38 42.4847 17.38C41.7647 17.38 41.1547 17.51 40.6547 17.77C40.1547 18.03 39.7347 18.38 39.3947 18.82C39.0747 19.24 38.8347 19.73 38.6747 20.29C38.5147 20.85 38.4247 21.43 38.4047 22.03V31.93H31.5047V4.57H38.4047V14.05Z" fill="black"/>
<path d="M62.7377 24.01C62.9777 24.99 63.4077 25.76 64.0277 26.32C64.6677 26.88 65.4577 27.16 66.3977 27.16C67.1977 27.16 67.8777 27 68.4377 26.68C68.9977 26.34 69.3677 25.87 69.5477 25.27H76.7777C76.4977 26.31 76.0677 27.27 75.4877 28.15C74.9277 29.05 74.2177 29.82 73.3577 30.46C72.4977 31.12 71.4877 31.63 70.3277 31.99C69.1877 32.37 67.8877 32.56 66.4277 32.56C64.6677 32.56 63.1077 32.29 61.7477 31.75C60.4077 31.21 59.2777 30.47 58.3577 29.53C57.4577 28.59 56.7777 27.5 56.3177 26.26C55.8577 25 55.6277 23.65 55.6277 22.21C55.6277 20.77 55.8477 19.42 56.2877 18.16C56.7477 16.9 57.4177 15.8 58.2977 14.86C59.1777 13.92 60.2777 13.18 61.5977 12.64C62.9377 12.1 64.4877 11.83 66.2477 11.83C68.0077 11.83 69.5477 12.1 70.8677 12.64C72.2077 13.18 73.3177 13.92 74.1977 14.86C75.0777 15.8 75.7377 16.9 76.1777 18.16C76.6377 19.42 76.8677 20.77 76.8677 22.21C76.8677 22.53 76.8477 22.84 76.8077 23.14C76.7877 23.42 76.7577 23.71 76.7177 24.01H62.7377ZM66.2477 17.05C65.3477 17.05 64.6177 17.3 64.0577 17.8C63.5177 18.28 63.1177 18.91 62.8577 19.69H69.6077C69.3477 18.91 68.9477 18.28 68.4077 17.8C67.8677 17.3 67.1477 17.05 66.2477 17.05Z" fill="black"/>
<path d="M93.0431 20.47C93.0031 19.47 92.7031 18.65 92.1431 18.01C91.6031 17.37 90.8131 17.05 89.7731 17.05C89.1131 17.05 88.5431 17.19 88.0631 17.47C87.6031 17.73 87.2231 18.1 86.9231 18.58C86.6231 19.04 86.4031 19.58 86.2631 20.2C86.1231 20.82 86.0531 21.49 86.0531 22.21C86.0531 22.93 86.1231 23.6 86.2631 24.22C86.4031 24.84 86.6231 25.39 86.9231 25.87C87.2231 26.33 87.6031 26.7 88.0631 26.98C88.5431 27.24 89.1131 27.37 89.7731 27.37C90.8131 27.37 91.6031 27.05 92.1431 26.41C92.7031 25.77 93.0031 24.95 93.0431 23.95H100.273C100.173 25.19 99.8631 26.34 99.3431 27.4C98.8431 28.44 98.1431 29.34 97.2431 30.1C96.3631 30.88 95.2931 31.49 94.0331 31.93C92.7731 32.37 91.3531 32.59 89.7731 32.59C88.0131 32.59 86.4631 32.32 85.1231 31.78C83.8031 31.24 82.7031 30.5 81.8231 29.56C80.9431 28.62 80.2731 27.52 79.8131 26.26C79.3731 25 79.1531 23.65 79.1531 22.21C79.1531 20.77 79.3731 19.42 79.8131 18.16C80.2731 16.9 80.9431 15.8 81.8231 14.86C82.7031 13.92 83.8031 13.18 85.1231 12.64C86.4631 12.1 88.0131 11.83 89.7731 11.83C91.3531 11.83 92.7731 12.05 94.0331 12.49C95.2931 12.93 96.3631 13.54 97.2431 14.32C98.1431 15.08 98.8431 15.99 99.3431 17.05C99.8631 18.11 100.173 19.25 100.273 20.47H93.0431Z" fill="black"/>
<path d="M103.611 31.93V4.57H110.511V19.18L116.331 12.31H124.131L116.241 21.79L124.611 31.93H116.211L110.511 24.88V31.93H103.611Z" fill="black"/>
<path d="M12.56 5.5C12.56 6.32843 11.8884 7 11.06 7C10.2316 7 9.56 6.32843 9.56 5.5V1.5C9.56 0.671573 10.2316 -7.24233e-08 11.06 0C11.8884 7.24235e-08 12.56 0.671573 12.56 1.5V5.5Z" fill="#239CFF"/>
<path d="M18.56 5.5C18.56 6.32843 17.8884 7 17.06 7C16.2316 7 15.56 6.32843 15.56 5.5V1.5C15.56 0.671573 16.2316 -7.24233e-08 17.06 0C17.8884 7.24235e-08 18.56 0.671573 18.56 1.5L18.56 5.5Z" fill="#239CFF"/>
</svg>
